<?xml version="1.0" standalone="no"?>
<!DOCTYPE svg PUBLIC "-//W3C//DTD SVG 20010904//EN"
 "http://www.w3.org/TR/2001/REC-SVG-20010904/DTD/svg10.dtd">
<svg version="1.0" xmlns="http://www.w3.org/2000/svg"
 width="693.000000pt" height="693.000000pt" viewBox="0 0 693.000000 693.000000"
 preserveAspectRatio="xMidYMid meet">
<metadata>
Created by potrace 1.11, written by Peter Selinger 2001-2013
</metadata>
<g transform="translate(0.000000,693.000000) scale(0.100000,-0.100000)"
fill="#000000" stroke="none">
<path d="M0 3516 c0 -3382 0 -3414 20 -3409 10 3 26 16 35 29 10 15 24 23 39
22 23 -2 67 13 151 52 22 10 65 29 95 41 30 12 87 37 127 56 40 18 80 33 90
33 26 1 62 34 74 69 12 34 30 39 49 16 16 -20 32 -19 61 4 13 10 50 21 82 25
48 6 66 14 95 42 24 22 46 34 65 34 36 0 53 10 106 58 24 22 49 46 57 54 8 7
28 27 43 43 24 25 84 72 125 97 6 3 31 12 55 19 25 8 59 23 76 35 17 11 46 24
63 27 35 7 58 26 86 70 9 15 28 33 40 39 13 5 29 21 34 33 6 13 27 31 46 40
19 9 50 36 69 58 20 25 50 48 73 56 22 8 41 17 44 21 12 18 110 70 131 70 14
0 30 9 39 23 32 50 49 86 42 91 -4 2 -8 19 -7 38 0 26 4 32 18 30 12 -2 17 4
17 22 0 20 -4 23 -22 18 -14 -3 -19 -2 -14 6 4 7 16 12 26 12 29 0 42 31 23
53 -12 12 -16 36 -16 81 1 57 -1 63 -17 59 -15 -4 -21 4 -31 39 -7 23 -16 47
-21 53 -4 5 -8 20 -8 35 0 14 -9 58 -20 99 -11 40 -17 84 -14 97 5 18 2 24
-10 24 -18 0 -22 16 -5 22 9 3 9 9 0 25 -6 12 -8 29 -5 37 3 9 1 16 -6 16 -7
0 -9 8 -5 20 4 11 2 20 -4 20 -6 0 -11 11 -11 24 0 23 -23 41 -40 31 -5 -3 -7
-12 -4 -20 4 -8 -1 -18 -10 -21 -9 -3 -13 -11 -10 -16 12 -18 15 -118 4 -118
-5 0 -10 8 -10 17 0 15 -1 15 -13 -2 -12 -16 -16 0 -32 121 -19 146 -27 163
-72 164 -13 0 -23 4 -23 8 0 4 -10 8 -21 9 -40 3 -69 44 -100 142 -16 53 -35
126 -41 162 -11 61 -10 68 9 92 16 20 22 48 28 114 6 83 33 261 40 274 2 3 11
49 19 102 19 118 16 129 -73 215 l-65 63 -19 -23 -18 -23 6 49 c11 84 44 114
108 101 45 -10 54 -17 31 -26 -19 -7 -19 -7 1 -14 29 -11 75 -56 75 -74 0 -8
2 -12 5 -9 5 5 11 90 20 288 3 58 7 137 9 175 2 45 11 86 25 114 11 25 21 51
21 58 0 7 9 27 20 45 11 18 20 41 20 51 0 9 5 17 11 17 6 0 9 7 5 15 -3 8 -2
15 2 15 4 0 13 18 18 39 9 32 8 43 -7 62 -16 22 -16 24 4 62 21 41 24 97 7
142 -5 14 -10 56 -10 92 l0 65 58 56 c79 78 135 112 180 112 76 -2 88 -1 122
6 19 3 40 10 45 14 6 4 27 10 48 14 34 6 60 23 103 64 8 7 14 11 14 7 0 -3 16
10 35 30 20 19 40 35 45 35 6 0 10 5 10 10 0 6 6 10 13 10 8 0 22 9 32 20 10
11 25 20 33 20 8 0 12 6 9 14 -4 10 0 12 14 9 15 -4 17 -9 10 -16 -16 -16 -14
-27 4 -27 20 0 36 41 23 57 -6 7 -7 25 -3 40 l6 27 27 -31 c15 -17 38 -36 50
-43 21 -10 23 -9 20 6 -2 10 -14 24 -28 31 l-25 13 25 0 c53 0 190 -55 190
-77 0 -7 4 -13 10 -13 5 0 7 -7 4 -15 -11 -26 27 -31 46 -5 11 14 20 19 24 12
3 -6 26 -14 51 -18 53 -7 81 -32 47 -41 -38 -9 -24 -24 16 -17 39 7 75 31 66
45 -5 8 58 39 80 39 6 0 -2 -12 -19 -27 -20 -18 -24 -24 -10 -18 11 4 35 13
53 19 34 11 43 26 16 26 -8 0 -12 5 -9 10 5 8 11 8 20 0 7 -6 42 -10 79 -9 37
1 70 -1 73 -5 3 -3 11 -2 18 4 13 11 70 13 109 4 28 -7 29 -6 22 21 -7 26 -6
27 10 14 12 -10 41 -13 103 -12 134 3 146 5 143 27 -3 16 1 17 23 12 15 -4 32
-2 39 3 15 12 56 3 56 -13 0 -6 9 0 19 13 15 20 27 24 87 26 70 2 116 15 129
35 5 7 21 9 47 5 29 -5 44 -3 56 8 27 25 144 16 192 -14 35 -21 67 -32 94 -30
39 2 43 7 21 31 -10 11 -23 30 -29 42 -7 14 -28 27 -55 35 -24 7 -48 17 -55
22 -17 15 -68 32 -61 22 13 -23 -149 14 -182 41 -7 5 -32 12 -55 14 -30 3 -39
1 -28 -6 8 -5 23 -10 32 -10 17 0 84 -33 103 -51 15 -15 -18 -10 -39 6 -11 8
-29 15 -41 15 -11 0 -38 9 -59 19 -30 16 -36 17 -32 5 4 -10 2 -12 -7 -7 -87
56 -127 85 -127 93 0 6 -6 10 -14 10 -27 0 -95 83 -112 138 -18 56 -39 86 -55
77 -5 -4 -6 1 -3 9 3 9 2 16 -3 16 -10 0 -36 90 -28 98 3 3 5 -2 5 -11 0 -10
6 -17 14 -17 8 0 16 -7 20 -15 3 -8 12 -15 21 -15 9 0 15 -9 16 -22 0 -22 1
-22 9 -3 6 14 8 7 7 -25 -1 -33 5 -54 23 -79 13 -20 26 -29 28 -22 2 7 -3 20
-12 30 -20 22 -23 137 -4 143 7 3 12 21 12 41 0 20 4 37 8 37 4 0 8 -5 8 -11
0 -16 47 -69 54 -62 10 10 7 25 -4 18 -6 -4 -10 5 -8 24 2 30 18 34 18 4 0 -9
6 -13 15 -9 11 4 15 -2 15 -20 0 -16 4 -23 12 -18 7 4 8 3 4 -5 -4 -6 -1 -22
7 -35 20 -30 97 -105 120 -118 17 -9 18 -7 12 24 -6 31 -5 31 26 -17 17 -27
36 -52 41 -54 5 -1 19 -13 31 -26 12 -12 54 -40 92 -60 81 -43 97 -54 90 -65
-3 -4 12 -20 33 -36 20 -15 41 -33 45 -38 5 -7 7 -4 3 7 -6 18 9 24 19 7 14
-22 27 -9 22 20 -4 17 -2 30 3 30 6 0 10 -11 10 -25 0 -14 4 -25 10 -25 5 0
21 -17 34 -39 14 -21 42 -49 63 -61 44 -27 96 -78 106 -104 4 -10 21 -23 37
-29 17 -6 29 -16 27 -21 -7 -21 -26 -16 -61 15 -33 29 -36 29 -36 10 0 -12 5
-21 10 -21 6 0 10 -5 10 -10 0 -7 -6 -7 -20 0 -37 20 -21 -16 17 -37 23 -13
40 -2 28 17 -3 6 -1 10 4 10 6 0 11 -4 11 -8 0 -5 30 -40 67 -78 67 -69 103
-110 103 -118 0 -2 -10 -2 -22 0 -17 3 -15 0 7 -10 17 -8 32 -10 36 -5 10 17
32 -39 25 -65 -5 -20 0 -35 21 -61 33 -41 43 -44 44 -12 l0 22 11 -22 c16 -33
26 -28 30 15 l4 37 22 -48 c12 -27 22 -57 22 -67 0 -9 8 -24 17 -31 11 -10 14
-10 9 -1 -4 6 -3 12 3 12 16 0 41 -30 41 -51 0 -10 6 -19 13 -19 7 0 17 -10
22 -22 6 -13 24 -26 43 -30 35 -9 53 -35 32 -48 -8 -5 -9 -9 -1 -14 6 -4 11
-1 11 6 0 8 5 7 17 -4 13 -13 14 -20 4 -31 -9 -11 -9 -21 0 -41 8 -18 9 -29 1
-38 -5 -7 -10 -47 -9 -88 1 -41 -4 -83 -9 -93 -9 -15 -13 -5 -23 55 -15 92
-30 148 -39 148 -4 0 -5 -21 -3 -47 3 -39 1 -45 -13 -40 -18 7 -23 -17 -6 -28
16 -10 12 -21 -14 -34 -31 -17 -46 -51 -46 -104 0 -56 15 -80 23 -38 6 28 9
30 36 25 25 -5 30 -2 39 22 9 24 10 19 6 -31 -3 -33 -10 -73 -14 -88 -11 -32
10 -48 35 -27 13 11 15 7 16 -21 1 -19 1 -37 0 -41 0 -5 2 -8 7 -8 4 0 8 -12
8 -26 2 -35 12 -41 28 -19 11 16 14 11 18 -41 5 -56 2 -93 -21 -213 -6 -30 -6
-61 -2 -70 5 -9 5 -25 0 -36 -4 -11 -8 -35 -8 -52 -1 -41 12 -42 83 -8 67 32
102 22 143 -38 26 -39 28 -49 27 -132 -1 -49 -9 -119 -18 -155 -18 -70 -50
-298 -66 -470 -12 -124 -25 -192 -49 -257 -62 -173 -145 -251 -273 -261 -46
-4 -62 0 -86 17 -52 36 -53 35 -72 -89 -6 -41 -18 -97 -26 -125 -7 -27 -21
-81 -29 -118 -24 -101 -81 -270 -114 -336 l-29 -59 72 -75 c39 -41 81 -89 94
-106 13 -17 29 -31 35 -31 7 0 24 -26 39 -58 16 -34 36 -61 50 -67 13 -5 30
-24 38 -42 15 -32 59 -73 78 -73 6 0 13 -9 17 -20 6 -19 75 -80 91 -80 5 -1
25 -21 44 -45 19 -25 43 -48 53 -51 9 -3 23 -20 31 -37 7 -18 30 -45 51 -62
52 -42 95 -88 95 -101 0 -18 35 -44 74 -55 21 -6 46 -19 57 -30 10 -10 26 -19
34 -19 8 0 15 -4 15 -10 0 -5 11 -10 24 -10 14 0 28 -4 31 -10 3 -5 16 -10 28
-10 12 0 36 -15 54 -34 18 -20 48 -39 71 -45 22 -6 45 -18 52 -25 6 -8 24 -18
40 -21 15 -3 36 -15 46 -26 9 -10 23 -19 30 -19 7 0 19 -6 26 -13 7 -7 37 -26
65 -43 29 -16 53 -34 53 -39 0 -6 23 -21 52 -34 28 -13 69 -39 90 -59 45 -41
82 -62 113 -62 31 0 55 -10 55 -22 0 -27 46 -47 108 -48 l62 0 0 2748 c0 2726
0 2748 -20 2787 -14 27 -17 42 -10 49 8 8 14 6 20 -4 6 -10 10 208 10 592 l0
607 -21 6 c-12 4 -51 7 -88 6 -84 -1 -98 4 -116 40 -11 20 -23 29 -40 29 -14
0 -25 5 -25 10 0 6 -6 10 -14 10 -8 0 -23 11 -34 25 l-20 25 -3286 0 -3286 0
0 -3414z m3641 3303 c13 -22 121 -130 126 -126 2 2 -1 16 -7 31 -5 15 -10 34
-10 43 0 31 30 -8 41 -53 6 -24 16 -44 21 -44 6 0 7 -14 3 -32 -6 -31 -6 -32
8 -13 8 11 17 30 21 43 13 40 28 25 21 -22 -11 -69 21 -70 41 -1 l8 30 4 -35
c5 -46 24 -57 39 -22 12 27 12 26 13 -15 0 -23 5 -45 10 -48 6 -4 8 -10 5 -15
-3 -4 3 -7 12 -6 10 2 37 -16 61 -38 55 -52 72 -62 72 -42 0 15 18 32 25 24 2
-2 -2 -16 -9 -30 -12 -23 -12 -27 0 -32 8 -3 14 -14 14 -24 0 -11 7 -25 15
-32 10 -9 15 -9 15 -1 0 6 5 10 12 9 7 -2 12 9 13 27 1 32 39 102 48 88 3 -4
-3 -26 -14 -47 -24 -50 -25 -82 -1 -43 9 15 22 25 29 23 7 -3 15 -1 18 4 10
16 22 12 27 -8 4 -15 0 -18 -18 -16 -16 1 -28 -5 -35 -17 -15 -29 14 -35 50
-10 16 12 39 21 50 21 12 0 46 14 77 31 41 24 58 29 67 20 8 -8 8 -11 -1 -11
-7 0 -12 -5 -12 -11 0 -6 -7 -17 -15 -25 -8 -8 -12 -21 -9 -29 4 -8 1 -15 -5
-15 -6 0 -11 -15 -11 -33 0 -49 -18 -62 -43 -31 -19 24 -19 28 -4 59 15 32 15
33 -4 28 -11 -3 -34 -19 -50 -36 -27 -27 -29 -31 -14 -47 8 -9 12 -19 9 -23
-4 -3 7 -9 22 -12 41 -9 59 -20 59 -36 0 -8 9 -18 19 -24 11 -5 28 -22 40 -38
17 -22 18 -29 7 -40 -11 -10 -13 -9 -8 6 4 11 1 17 -9 17 -8 0 -13 4 -10 9 9
13 -21 21 -45 13 -21 -8 -21 -8 4 -24 13 -9 27 -26 30 -38 4 -17 2 -20 -14
-15 -17 6 -19 3 -13 -20 15 -59 2 -75 -28 -34 -15 20 -18 31 -10 45 9 16 6 19
-19 21 -16 1 -29 0 -29 -2 0 -2 9 -27 20 -55 11 -28 21 -61 21 -73 1 -17 3
-16 9 8 6 22 8 25 10 10 1 -11 2 -29 1 -40 0 -11 2 -14 5 -7 10 21 24 13 24
-15 0 -44 50 -138 87 -163 26 -17 31 -25 21 -32 -9 -6 -6 -7 8 -3 13 3 26 -1
34 -10 10 -12 16 -13 26 -4 11 9 14 8 14 -2 0 -7 10 -24 23 -37 l22 -24 -24 7
c-41 13 -19 -17 25 -32 21 -8 46 -20 54 -29 13 -13 11 -14 -20 -8 -19 4 -38
12 -41 17 -4 5 -15 7 -25 3 -13 -5 -15 -9 -6 -18 7 -7 12 -25 12 -42 0 -28 -1
-28 -18 -13 -10 10 -21 17 -24 17 -8 0 3 -42 15 -57 6 -9 6 -13 0 -13 -6 0
-21 16 -34 35 -22 32 -25 34 -37 17 -12 -15 -13 -13 -7 15 4 22 2 38 -7 47
-22 24 -48 56 -48 61 0 2 6 2 14 -1 8 -3 16 -2 19 3 8 14 -12 55 -24 48 -5 -4
-17 1 -24 11 -8 11 -15 15 -15 11 -1 -25 -28 25 -33 59 -6 48 -43 149 -62 168
-8 8 -17 36 -19 63 -7 69 -14 83 -42 83 -22 0 -23 -2 -12 -25 6 -14 18 -26 27
-26 13 -1 14 -2 1 -5 -17 -5 -25 -90 -9 -99 5 -4 9 -17 9 -31 0 -13 4 -24 9
-24 5 0 11 -11 15 -23 7 -28 61 -99 69 -91 3 3 3 -3 0 -15 -3 -12 -1 -21 6
-21 6 0 11 -7 11 -16 0 -9 9 -18 19 -21 20 -5 36 -31 26 -41 -3 -3 -16 5 -30
18 -40 38 -29 9 40 -105 36 -59 65 -109 65 -111 0 -14 -19 0 -28 21 -13 29
-16 33 -66 91 -20 23 -36 44 -36 48 0 4 -5 12 -10 19 -73 88 -92 120 -92 156
1 32 -3 40 -21 45 -18 5 -19 8 -7 15 12 8 12 12 -3 29 -9 10 -17 26 -17 35 0
28 -23 71 -50 94 -14 11 -22 24 -19 28 4 3 19 -6 34 -20 29 -30 43 -28 26 3
-6 12 -11 33 -11 48 0 25 -2 26 -40 21 -22 -3 -40 -1 -40 3 0 5 18 11 40 15
22 4 40 11 40 17 0 6 14 8 35 4 19 -4 35 -3 35 2 0 15 -82 37 -143 37 -57 0
-58 0 -37 17 22 18 22 18 -11 11 l-34 -6 19 21 c16 18 16 22 4 22 -21 0 -41
-26 -32 -41 4 -8 3 -9 -5 -5 -6 4 -23 -1 -39 -12 -15 -10 -35 -22 -44 -25 -10
-3 -31 -25 -48 -48 -16 -23 -30 -35 -30 -26 0 9 5 19 10 22 6 3 10 17 10 31 0
19 7 28 30 35 17 6 30 15 30 19 0 5 10 12 21 15 14 5 18 10 10 14 -6 4 -9 15
-5 24 4 10 1 17 -6 17 -6 0 -14 -8 -17 -19 -2 -10 -16 -24 -29 -31 -13 -8 -24
-17 -24 -22 0 -4 -5 -8 -11 -8 -16 0 -36 24 -31 38 2 6 -3 12 -12 12 -9 0 -16
-4 -16 -10 0 -5 -5 -10 -12 -10 -6 0 -22 -10 -35 -22 -13 -12 -23 -17 -23 -12
0 23 114 104 147 104 7 0 13 4 13 10 0 15 -60 0 -106 -27 -36 -21 -43 -22 -54
-8 -22 27 -70 12 -70 -22 0 -6 -11 -29 -25 -49 -14 -20 -25 -30 -25 -22 0 9 6
21 14 28 8 6 12 18 9 26 -3 8 2 25 11 39 30 46 13 86 -23 53 -12 -11 -13 -10
-7 6 6 17 5 18 -16 4 -13 -8 -28 -25 -34 -37 -9 -18 -11 -9 -8 49 2 60 0 72
-16 80 -20 11 -34 -5 -51 -59 -6 -21 -7 -16 -8 24 -1 46 -3 50 -26 51 -16 1
-24 -3 -22 -10 2 -6 9 -11 15 -11 21 0 23 -13 3 -20 -24 -7 -41 0 -41 18 0 16
-37 19 -46 5 -5 -7 -1 -9 9 -5 11 4 17 1 17 -7 0 -8 -10 -17 -22 -21 -14 -4
-18 -8 -10 -12 6 -2 12 -19 12 -37 0 -23 9 -41 30 -61 34 -33 34 -40 -4 -25
-25 9 -26 8 -16 -10 7 -14 7 -20 0 -20 -5 0 -10 5 -10 10 0 6 -9 10 -20 10
-11 0 -20 -6 -20 -14 0 -8 -3 -21 -6 -29 -3 -10 5 -18 25 -25 17 -6 31 -12 31
-14 0 -7 -46 -2 -58 6 -13 8 -16 -14 -5 -52 4 -17 8 -20 14 -11 6 10 11 6 18
-12 7 -21 18 -27 51 -32 41 -5 90 -39 90 -62 0 -6 11 -22 25 -35 19 -18 25
-20 25 -8 0 8 -9 23 -19 32 -11 10 -17 24 -15 31 3 7 -15 26 -43 43 -26 18
-53 36 -60 42 -7 5 -16 10 -21 10 -5 0 -15 7 -22 15 -10 13 -9 15 8 15 12 0
25 -7 30 -16 5 -9 15 -14 21 -10 6 4 8 12 5 18 -4 7 -2 8 4 4 6 -4 9 -13 5
-21 -3 -8 -1 -15 5 -15 11 0 11 65 0 76 -15 14 -8 26 7 14 10 -9 15 -9 15 -1
0 17 17 13 24 -6 4 -9 2 -19 -3 -23 -6 -3 -1 -11 10 -18 16 -10 20 -10 18 0
-1 7 0 29 1 48 l2 35 8 -32 c4 -18 13 -39 20 -47 6 -8 9 -23 6 -33 -6 -22 65
-109 82 -99 6 3 14 27 18 51 3 25 10 45 15 45 5 0 9 8 9 17 0 16 2 16 15 2 13
-12 14 -21 5 -44 -7 -19 -8 -31 0 -39 13 -13 13 -59 0 -51 -5 3 -10 15 -10 26
0 27 -12 24 -30 -9 -14 -23 -14 -32 -2 -67 8 -22 14 -64 14 -93 1 -29 5 -55 9
-58 5 -3 9 4 9 15 0 11 5 23 10 26 14 8 13 -48 -1 -62 -8 -8 -6 -18 6 -36 9
-14 15 -31 14 -39 -3 -28 2 -46 21 -69 34 -39 70 -99 60 -99 -13 0 -43 41 -76
104 -28 54 -44 70 -44 44 0 -6 -6 -3 -14 8 -17 22 -20 16 -31 -50 l-6 -39 -15
29 c-13 25 -13 34 1 75 8 26 14 60 14 76 -1 20 -3 23 -6 8 -16 -70 -25 -95
-34 -95 -6 0 -8 12 -4 29 5 22 1 35 -14 50 l-21 21 0 -24 c0 -14 -4 -28 -10
-31 -5 -3 -10 1 -10 11 0 15 -13 44 -60 134 -10 19 -23 34 -29 33 -5 -2 -20
14 -32 35 -13 20 -27 39 -31 40 -4 2 -8 9 -8 17 0 7 -13 18 -30 25 -16 7 -30
16 -30 21 0 5 -7 9 -15 9 -8 0 -15 4 -15 10 0 5 -11 12 -25 16 -14 3 -25 12
-25 20 0 8 -3 13 -7 12 -13 -4 -72 35 -67 43 2 5 11 6 19 2 19 -7 19 11 0 27
-8 7 -15 18 -15 24 0 6 5 4 10 -4 8 -12 10 -11 10 8 0 12 -4 22 -10 22 -14 0
-12 27 3 34 9 4 9 8 1 11 -7 3 -10 15 -7 25 3 11 0 20 -6 20 -6 0 -11 7 -11
16 0 10 6 14 14 11 18 -7 29 33 20 79 -7 37 14 50 23 14 5 -17 12 -13 54 32
35 37 46 55 38 64 -12 15 -8 17 64 38 31 9 57 21 57 26 0 5 10 12 23 16 12 3
28 11 36 17 25 21 84 37 97 26 13 -11 7 -49 -8 -49 -5 0 -6 5 -3 10 14 23 -53
9 -79 -16 -25 -26 -36 -74 -16 -74 6 0 10 5 10 10 0 6 10 14 22 19 13 5 23 17
23 27 0 11 6 18 13 16 73 -15 85 -9 96 51 5 29 2 46 -15 77 -13 22 -26 40 -30
40 -5 0 -19 11 -33 24 -18 16 -34 22 -51 18 -24 -4 -33 7 -18 22 11 11 75 -1
84 -15z m2850 -89 c36 -20 26 -38 -70 -120 -22 -19 -41 -39 -41 -45 -1 -13
-49 -50 -77 -59 -17 -6 -23 -3 -23 8 0 9 4 16 8 16 5 0 14 12 21 27 7 15 21
33 32 41 10 7 19 19 19 26 0 7 10 22 23 33 12 11 34 34 49 52 29 35 31 35 59
21z m-3551 -20 c0 -6 7 -10 15 -10 8 0 15 -6 15 -14 0 -8 10 -16 23 -18 19 -4
17 -6 -13 -15 l-35 -10 29 -14 c29 -13 29 -14 6 -19 -27 -6 -39 -30 -16 -30 9
0 13 -6 10 -14 -7 -17 -67 -11 -99 10 -11 7 -47 20 -79 28 -62 16 -108 10
-146 -20 -46 -36 -120 -57 -120 -34 0 6 6 10 14 10 7 0 29 19 49 43 29 36 46
46 110 66 136 42 237 59 237 41z m194 -49 c3 -5 16 -7 28 -3 14 3 19 2 14 -6
-5 -8 4 -12 28 -12 19 0 38 -4 41 -10 3 -5 15 -10 26 -10 12 0 19 -7 19 -20 0
-11 6 -20 14 -20 7 0 19 -7 26 -16 11 -13 10 -19 -8 -37 -20 -19 -25 -20 -43
-8 -17 10 -23 10 -29 1 -11 -17 -60 -4 -60 16 0 10 -6 14 -17 10 -12 -3 -25 4
-36 19 -10 14 -13 25 -7 25 18 0 11 20 -7 21 -17 1 -17 2 0 6 33 9 12 37 -33
46 -21 4 -20 4 7 6 17 0 34 -3 37 -8z m5 -156 c-1 -17 -2 -17 -6 -2 -2 9 -11
17 -18 17 -7 0 -22 3 -32 7 -15 6 -16 4 -6 -8 8 -9 9 -20 3 -29 -18 -27 -11
-40 21 -40 27 0 30 -2 19 -15 -15 -18 -34 -19 -58 -4 -17 11 -17 16 -5 62 13
53 33 85 33 54 0 -9 5 -17 11 -17 7 0 9 10 5 28 l-7 27 21 -30 c11 -16 19 -39
19 -50z m1151 45 c0 -5 -4 -10 -10 -10 -5 0 -10 5 -10 10 0 6 5 10 10 10 6 0
10 -4 10 -10z m-88 -30 c-12 -11 -25 -20 -29 -20 -9 1 36 40 45 40 3 0 -4 -9
-16 -20z m-1262 -14 c0 -2 -7 -7 -16 -10 -8 -3 -12 -2 -9 4 6 10 25 14 25 6z
m-136 -51 c-36 -33 -45 -48 -37 -56 18 -18 46 -3 38 21 -5 15 -3 18 9 14 9 -3
16 -1 16 5 0 6 6 11 14 11 9 0 13 -10 12 -25 0 -14 -5 -25 -9 -25 -5 0 -15 -7
-23 -15 -14 -13 -13 -16 7 -24 27 -9 61 -3 53 10 -14 24 59 -13 78 -39 15 -21
73 -46 86 -38 6 4 8 -3 5 -15 -5 -19 -3 -21 19 -16 21 6 32 0 57 -28 17 -20
31 -38 31 -41 0 -3 -20 7 -45 22 -25 14 -45 21 -45 16 0 -6 9 -14 20 -17 12
-4 32 -23 45 -43 13 -20 38 -52 54 -71 18 -20 31 -45 31 -60 0 -15 4 -31 9
-36 4 -6 14 -26 20 -45 18 -53 -2 -23 -33 49 -28 68 -150 215 -171 207 -6 -2
-20 9 -31 25 -10 16 -27 29 -37 29 -12 0 -16 4 -11 13 4 6 4 9 -1 5 -4 -4 -17
-1 -29 7 -11 8 -30 15 -41 15 -16 0 -11 -8 25 -39 25 -21 43 -42 40 -45 -4 -3
-24 10 -45 29 -22 19 -44 35 -48 35 -5 0 -6 4 -2 10 3 5 -8 16 -24 25 -29 15
-46 9 -33 -11 4 -6 14 -14 22 -17 9 -3 4 -6 -12 -6 -15 -1 -30 4 -33 9 -9 15
-25 12 -25 -6 0 -8 -4 -12 -10 -9 -5 3 -10 15 -10 26 0 10 -7 19 -15 19 -19 0
-19 -14 -1 -33 14 -13 23 -41 46 -134 7 -26 15 -40 23 -38 8 4 13 -11 15 -47
1 -29 7 -57 12 -62 6 -6 10 -18 10 -27 0 -10 6 -19 13 -22 7 -2 8 -8 3 -13 -5
-5 -11 -4 -13 4 -3 7 -10 18 -17 25 -7 6 -19 27 -27 45 -7 17 -17 32 -21 32
-5 0 -8 7 -8 16 0 10 6 14 14 11 11 -5 11 2 -2 33 -9 21 -19 37 -23 35 -3 -2
-18 25 -34 61 -30 67 -50 93 -63 79 -4 -4 -1 -10 6 -12 6 -3 12 -11 12 -19 0
-8 5 -14 10 -14 6 0 10 -4 10 -10 0 -5 -9 -10 -21 -10 -12 0 -19 5 -16 13 2 6
-5 19 -15 28 -21 19 -56 15 -77 -10 -12 -15 -13 -14 -8 2 10 29 -21 20 -61
-18 -20 -19 -39 -30 -40 -25 -6 18 59 90 99 111 22 10 39 24 39 29 0 6 8 10
18 10 54 0 141 48 127 70 -5 8 84 59 104 60 8 0 -8 -20 -35 -45z m471 35 c3
-5 1 -10 -4 -10 -6 0 -11 5 -11 10 0 6 2 10 4 10 3 0 8 -4 11 -10z m1135 0
c-20 -13 -43 -13 -35 0 3 6 16 10 28 10 18 0 19 -2 7 -10z m-1210 -20 c-6 -12
-8 -29 -5 -39 4 -14 -3 -25 -24 -40 -16 -12 -31 -21 -33 -21 -1 0 -1 22 0 50
2 27 8 50 13 50 5 0 9 -5 9 -10 0 -6 10 -2 22 10 27 25 32 25 18 0z m1137 -18
c-17 -16 -39 -8 -31 12 3 8 14 12 25 9 18 -5 19 -7 6 -21z m1945 6 c17 -17 18
-20 4 -15 -10 4 -24 7 -32 7 -8 0 -14 7 -14 15 0 21 16 19 42 -7z m-3957 2
c-3 -5 -11 -10 -16 -10 -6 0 -7 5 -4 10 3 6 11 10 16 10 6 0 7 -4 4 -10z m895
-14 c0 -3 -4 -8 -10 -11 -5 -3 -10 -1 -10 4 0 6 5 11 10 11 6 0 10 -2 10 -4z
m-150 -37 c0 -6 -4 -19 -10 -29 -8 -15 -3 -26 29 -59 40 -41 30 -60 -11 -21
-12 10 -24 17 -28 15 -5 -3 -11 6 -14 20 -4 15 -16 27 -31 31 -33 8 -33 33 0
26 17 -3 27 1 31 12 7 18 34 22 34 5z m127 -166 c-3 -10 -5 -2 -5 17 0 19 2
27 5 18 2 -10 2 -26 0 -35z m-572 -3 c3 -5 -1 -10 -10 -10 -9 0 -14 -4 -11 -9
3 -4 -13 -8 -35 -8 -44 0 -55 -6 -44 -23 5 -8 24 -10 54 -6 25 3 39 3 31 -1
-8 -3 -19 -12 -23 -20 -5 -7 -12 -11 -18 -8 -5 3 -6 -1 -3 -9 3 -8 -2 -17 -14
-20 -10 -4 -29 -18 -42 -31 -21 -22 -22 -27 -9 -40 8 -9 23 -12 37 -8 18 4 21
8 10 15 -10 8 -10 9 2 5 26 -7 24 -36 -4 -43 -14 -3 -31 -13 -38 -21 -11 -14
-10 -15 10 -9 16 5 22 3 22 -7 0 -9 -14 -17 -35 -21 -39 -8 -128 -83 -152
-129 -14 -28 -14 -29 9 -22 13 4 29 12 36 17 8 7 12 7 12 -1 0 -7 -14 -17 -31
-23 -24 -8 -29 -15 -25 -32 5 -19 1 -21 -40 -20 -41 1 -79 14 -41 14 10 0 17
7 17 16 0 20 -31 11 -85 -24 -22 -14 -46 -27 -53 -28 -8 -2 -22 -10 -31 -18
-10 -9 -23 -16 -29 -16 -7 0 -12 -4 -12 -9 0 -11 -39 -25 -47 -17 -9 9 18 36
35 36 19 0 105 79 112 102 4 16 8 16 32 4 18 -10 29 -11 37 -3 6 6 18 11 28
12 31 2 43 15 43 45 0 18 -8 34 -22 44 -19 13 -20 16 -5 16 10 0 23 -11 29
-25 10 -23 12 -23 24 -7 7 9 10 20 8 24 -3 5 2 8 10 8 17 0 48 39 40 52 -3 5
0 7 7 6 8 -2 20 16 29 42 8 25 18 46 22 48 4 2 18 12 30 23 19 15 20 20 9 28
-8 5 -20 7 -26 4 -23 -8 -3 49 26 78 15 15 30 25 32 22 3 -2 20 0 38 6 45 12
47 13 54 1z m1890 -10 c-3 -5 -10 -10 -16 -10 -5 0 -9 5 -9 10 0 6 7 10 16 10
8 0 12 -4 9 -10z m-1731 -16 c3 -8 2 -12 -4 -9 -6 3 -10 10 -10 16 0 14 7 11
14 -7z m212 -31 c-7 -7 -26 7 -26 19 0 6 6 6 15 -2 9 -7 13 -15 11 -17z m213
-27 c-2 -2 -13 8 -23 22 l-19 27 24 -22 c12 -12 21 -24 18 -27z m-959 29 c0
-13 -31 -78 -35 -74 -7 7 17 79 27 79 4 0 8 -2 8 -5z m555 -5 c3 -5 1 -10 -4
-10 -6 0 -11 5 -11 10 0 6 2 10 4 10 3 0 8 -4 11 -10z m-682 -31 c12 -20 1
-70 -15 -66 -6 1 -21 -17 -33 -41 -11 -24 -25 -46 -30 -50 -17 -11 -35 -61
-35 -92 0 -17 -5 -30 -11 -30 -7 0 -10 14 -7 35 4 36 -8 45 -30 23 -17 -17
-15 -73 3 -88 13 -11 18 -10 30 6 8 10 15 15 15 10 0 -5 7 -3 16 5 13 10 17
10 24 -1 7 -12 12 -11 29 4 15 14 18 23 11 40 -5 13 -4 29 1 37 5 8 9 23 9 35
0 23 25 62 34 53 3 -3 0 -20 -6 -37 -10 -26 -10 -37 0 -52 10 -17 10 -21 -3
-26 -8 -4 -15 -13 -15 -21 0 -11 5 -13 18 -8 9 4 30 10 45 14 16 3 48 26 72
50 42 42 74 51 47 13 -7 -9 -16 -27 -22 -39 -5 -13 -16 -23 -25 -23 -8 0 -15
-4 -15 -10 0 -17 -33 -48 -46 -43 -7 2 -24 -3 -38 -12 -14 -10 -36 -15 -49
-13 -13 2 -29 -2 -36 -9 -7 -7 -16 -11 -22 -8 -5 4 -16 -1 -25 -10 -9 -8 -31
-27 -50 -41 -34 -26 -38 -48 -6 -37 9 3 14 2 9 -2 -11 -12 -75 -16 -82 -5 -3
5 -2 18 4 28 6 11 6 24 0 33 -7 11 -9 10 -9 -6 l-1 -20 -12 20 c-6 11 -12 37
-13 58 -1 32 6 46 42 85 31 34 40 50 32 59 -13 17 -61 -14 -54 -34 5 -13 -14
-43 -27 -43 -15 0 32 153 58 189 25 35 80 81 84 70 2 -6 -3 -15 -10 -20 -8 -5
-9 -9 -3 -9 6 0 14 3 18 7 12 12 90 41 105 40 8 -1 18 -9 24 -18z m753 -29
c20 -37 30 -47 37 -38 6 9 7 7 3 -6 -4 -11 0 -26 10 -37 10 -11 13 -19 7 -19
-16 0 -93 116 -93 140 0 20 9 9 36 -40z m-38 -26 c-3 -27 -4 -26 -9 8 -3 22
-1 34 4 29 5 -5 7 -21 5 -37z m-413 -5 l-8 -24 -8 24 c-10 27 -2 48 13 33 6
-6 7 -20 3 -33z m1240 -8 c-10 -9 -24 21 -17 37 4 12 7 10 14 -8 5 -13 6 -25
3 -29z m-1405 25 c0 -3 -4 -8 -10 -11 -5 -3 -10 -1 -10 4 0 6 5 11 10 11 6 0
10 -2 10 -4z m407 -2 c-3 -3 -12 -4 -19 -1 -8 3 -5 6 6 6 11 1 17 -2 13 -5z
m1029 -62 c-12 -11 -16 6 -9 39 l8 34 3 -33 c2 -19 1 -36 -2 -40z m-846 8 c0
-5 -2 -10 -4 -10 -3 0 -8 5 -11 10 -3 6 -1 10 4 10 6 0 11 -4 11 -10z m1340
-27 c0 -20 -3 -33 -7 -30 -10 10 -11 67 -1 67 4 0 8 -16 8 -37z m510 27 c0
-12 54 -40 78 -40 19 0 76 -59 67 -69 -3 -2 -11 1 -17 7 -7 7 -16 12 -20 12
-13 0 -9 -28 5 -33 7 -3 5 -6 -6 -6 -10 -1 -20 6 -23 14 -4 8 -11 12 -16 9
-12 -8 -118 16 -118 27 0 16 51 19 73 4 24 -17 62 -21 52 -5 -3 5 -24 15 -46
21 -45 14 -64 32 -55 54 6 17 26 21 26 5z m-2530 -4 c0 -3 -4 -8 -10 -11 -5
-3 -10 -1 -10 4 0 6 5 11 10 11 6 0 10 -2 10 -4z m566 -38 c10 -18 19 -45 21
-60 1 -15 16 -89 33 -164 34 -150 37 -217 6 -121 -17 51 -36 76 -36 45 0 -6
-3 -9 -6 -5 -3 3 -8 36 -11 74 -2 37 -5 80 -6 96 -1 15 -6 27 -11 27 -4 0 -5
8 -2 17 4 9 1 20 -6 25 -10 6 -10 10 1 17 12 8 13 14 3 36 -24 51 -11 62 14
13z m-116 12 c0 -5 -2 -10 -4 -10 -3 0 -8 5 -11 10 -3 6 -1 10 4 10 6 0 11 -4
11 -10z m1330 -5 c-7 -8 -18 -15 -24 -15 -6 0 -2 7 8 15 25 19 32 19 16 0z
m610 -37 c0 -4 18 -6 40 -4 34 3 40 0 40 -16 0 -11 10 -22 25 -28 25 -9 35
-30 15 -30 -6 0 -25 7 -42 16 -19 10 -34 12 -40 6 -14 -14 84 -155 165 -239
39 -40 66 -73 61 -73 -14 1 -106 90 -139 135 -16 22 -40 51 -52 65 -13 14 -40
59 -59 100 -20 41 -40 83 -45 92 -5 10 -9 21 -9 25 0 10 39 -39 40 -49z
m-1600 11 c0 -4 -7 -6 -15 -3 -8 4 -15 10 -15 15 0 4 7 6 15 3 8 -4 15 -10 15
-15z m1555 -36 c4 -21 3 -33 -4 -33 -6 0 -11 8 -11 18 0 9 -3 28 -6 42 -5 17
-3 22 4 15 5 -5 13 -25 17 -42z m-1835 -8 c0 -19 -2 -18 -19 4 -12 16 -24 22
-36 18 -9 -4 -22 -4 -28 0 -19 12 46 20 66 9 9 -6 17 -20 17 -31z m1100 -12
c0 -7 7 -16 15 -19 8 -4 15 -10 15 -16 0 -5 -4 -6 -10 -3 -6 4 -10 -7 -10 -26
0 -44 -7 -34 -15 21 -3 25 -13 55 -21 67 -20 32 -17 40 6 13 11 -13 20 -29 20
-37z m120 -18 c-19 -55 -20 -57 -15 -18 5 43 27 102 32 87 1 -5 -6 -36 -17
-69z m-690 44 c0 -6 -4 -7 -10 -4 -5 3 -10 11 -10 16 0 6 5 7 10 4 6 -3 10
-11 10 -16z m637 -1 c-3 -8 -6 -5 -6 6 -1 11 2 17 5 13 3 -3 4 -12 1 -19z
m382 -136 c12 -24 21 -48 19 -54 -6 -17 -78 164 -77 192 0 15 7 2 18 -35 10
-33 28 -79 40 -103z m-922 96 c-3 -8 -6 -5 -6 6 -1 11 2 17 5 13 3 -3 4 -12 1
-19z m770 0 c-3 -8 -6 -5 -6 6 -1 11 2 17 5 13 3 -3 4 -12 1 -19z m-1011 -46
c-6 -6 -56 29 -56 39 0 5 13 0 30 -12 16 -13 28 -24 26 -27z m-228 -19 c2 -27
11 -50 27 -65 13 -14 23 -34 22 -46 -2 -30 -17 -28 -17 3 0 13 -7 28 -16 33
-9 5 -18 28 -21 53 -3 24 -11 50 -17 58 -9 11 -8 13 4 9 9 -3 16 -20 18 -45z
m-348 31 c0 -11 -34 -33 -50 -33 -10 -1 -6 6 10 19 26 20 40 25 40 14z m789
-49 l0 -20 -9 20 c-5 11 -9 29 -9 40 l0 20 9 -20 c5 -11 9 -29 9 -40z m-386
-7 c35 -71 50 -111 37 -103 -6 3 -10 -1 -10 -9 0 -9 -4 -16 -10 -16 -5 0 -10
16 -10 35 0 19 -9 49 -20 67 -17 28 -28 78 -17 78 2 0 16 -24 30 -52z m1007 7
c0 -8 -4 -15 -9 -15 -13 0 -22 16 -14 24 11 11 23 6 23 -9z m289 -50 c13 -30
13 -30 -8 -11 -12 11 -21 28 -21 40 0 24 11 13 29 -29z m99 10 c-3 -3 -9 2
-12 12 -6 14 -5 15 5 6 7 -7 10 -15 7 -18z m-1854 -22 c-4 -15 -8 -34 -9 -41
0 -7 -5 -16 -10 -20 -6 -4 -16 -18 -22 -32 -11 -24 -12 -24 -12 13 -1 24 8 52
25 78 28 45 41 46 28 2z m973 15 c-3 -8 -6 -5 -6 6 -1 11 2 17 5 13 3 -3 4
-12 1 -19z m768 -38 c9 -16 13 -30 11 -30 -10 0 -36 32 -36 46 0 22 8 17 25
-16z m137 -35 c3 -29 2 -33 -9 -23 -7 7 -10 23 -7 36 8 30 11 28 16 -13z m323
25 c3 -5 1 -10 -4 -10 -6 0 -11 5 -11 10 0 6 2 10 4 10 3 0 8 -4 11 -10z
m-2330 -20 c3 -6 -1 -7 -9 -4 -18 7 -21 14 -7 14 6 0 13 -4 16 -10z m685 -47
c0 -5 9 -16 20 -26 11 -9 19 -25 19 -34 -1 -16 -2 -17 -6 -1 -2 9 -13 20 -23
23 -10 3 -20 13 -23 23 -3 9 -8 26 -13 37 -7 19 -7 19 9 3 9 -9 17 -20 17 -25z
m880 -54 c11 -31 36 -72 55 -92 22 -22 33 -42 29 -51 -8 -22 -24 -20 -24 2 0
10 -11 29 -25 42 -14 13 -25 29 -25 36 0 6 -7 17 -14 24 -18 14 -60 84 -46 75
6 -4 10 7 11 27 0 38 5 31 39 -63z m19 46 c0 -5 -4 -3 -9 5 -5 8 -9 22 -9 30
0 16 17 -16 18 -35z m1217 -22 c-7 -7 -26 7 -26 19 0 6 6 6 15 -2 9 -7 13 -15
11 -17z m1781 -35 c-3 -8 -6 -5 -6 6 -1 11 2 17 5 13 3 -3 4 -12 1 -19z
m-3143 -3 c-4 -8 -11 -15 -16 -15 -6 0 -5 6 2 15 7 8 14 15 16 15 2 0 1 -7 -2
-15z m-1249 -5 c3 -5 1 -10 -4 -10 -6 0 -11 5 -11 10 0 6 2 10 4 10 3 0 8 -4
11 -10z m2025 -27 c0 -7 -4 -13 -10 -13 -5 0 -10 12 -10 28 0 21 2 24 10 12 5
-8 10 -21 10 -27z m216 -34 c29 -28 32 -29 27 -10 -4 17 -2 20 11 15 9 -3 16
-10 16 -15 0 -5 8 -9 18 -9 30 0 91 -57 85 -80 -3 -11 0 -20 6 -20 6 0 11 -7
11 -15 0 -20 -39 -20 -46 0 -4 8 -21 22 -40 31 -47 22 -153 134 -127 134 4 0
22 -14 39 -31z m-691 -49 c3 -5 2 -10 -4 -10 -5 0 -13 5 -16 10 -3 6 -2 10 4
10 5 0 13 -4 16 -10z m-985 -31 c0 -6 -4 -7 -10 -4 -5 3 -10 11 -10 16 0 6 5
7 10 4 6 -3 10 -11 10 -16z m917 7 c-4 -10 -1 -13 9 -9 10 4 12 0 8 -11 -4 -9
-12 -15 -18 -13 -15 5 -20 47 -6 47 7 0 10 -7 7 -14z m1028 -56 c35 -17 36
-18 10 -13 -36 7 -86 32 -65 32 8 0 33 -8 55 -19z m189 -5 c8 -22 -13 -29 -33
-11 -11 10 -21 12 -27 6 -12 -12 -76 -1 -68 11 3 5 23 8 45 7 21 -1 42 1 45 5
9 8 32 -2 38 -18z m-1082 -47 c15 -7 28 -16 28 -20 0 -10 -57 15 -80 35 -10 8
-21 13 -24 10 -3 -4 -6 -2 -6 4 0 20 13 21 33 2 11 -10 33 -25 49 -31z m318
-22 c0 -1 -17 -3 -37 -3 -33 -1 -35 0 -13 7 17 5 19 8 8 9 -10 1 -18 6 -18 11
0 6 13 4 30 -5 17 -9 30 -17 30 -19z m-740 -21 c0 -5 -5 -3 -10 5 -5 8 -10 20
-10 25 0 6 5 3 10 -5 5 -8 10 -19 10 -25z m505 -5 c3 -5 2 -10 -4 -10 -5 0
-13 5 -16 10 -3 6 -2 10 4 10 5 0 13 -4 16 -10z m45 -10 c12 -8 11 -10 -7 -10
-13 0 -23 5 -23 10 0 13 11 13 30 0z m835 0 c3 -5 1 -10 -4 -10 -6 0 -11 5
-11 10 0 6 2 10 4 10 3 0 8 -4 11 -10z m35 -10 c0 -5 -2 -10 -4 -10 -3 0 -8 5
-11 10 -3 6 -1 10 4 10 6 0 11 -4 11 -10z m-10 -80 c-19 -13 -30 -13 -30 0 0
6 10 10 23 10 18 0 19 -2 7 -10z m-1283 -26 c-3 -3 -12 -4 -19 -1 -8 3 -5 6 6
6 11 1 17 -2 13 -5z m1184 -76 c29 -20 44 -34 35 -36 -17 -4 -96 44 -96 58 0
15 7 13 61 -22z m-2763 -166 c3 -9 -3 -13 -19 -10 -12 1 -24 9 -27 16 -3 9 3
13 19 10 12 -1 24 -9 27 -16z m3323 -196 c-6 -14 -15 -26 -21 -26 -6 0 -4 13
5 31 19 36 30 33 16 -5z m-61 -387 c0 -16 -4 -29 -10 -29 -5 0 -10 16 -10 36
0 21 4 33 10 29 6 -3 10 -19 10 -36z m-48 -198 c2 -28 0 -37 -9 -34 -16 6 -28
48 -18 62 13 21 23 10 27 -28z m-3888 -882 c24 -163 28 -215 18 -204 -11 11
-42 212 -42 271 0 60 10 34 24 -67z m33 -271 c-3 -7 -5 -2 -5 12 0 14 2 19 5
13 2 -7 2 -19 0 -25z"/>
<path d="M3722 6661 c2 -30 8 -56 14 -58 13 -4 28 58 16 66 -5 3 -14 15 -20
26 -10 17 -12 11 -10 -34z"/>
<path d="M3780 6661 c0 -12 5 -21 10 -21 6 0 10 6 10 14 0 8 -4 18 -10 21 -5
3 -10 -3 -10 -14z"/>
<path d="M3737 6523 c-4 -3 -7 -11 -7 -17 0 -6 5 -5 12 2 6 6 9 14 7 17 -3 3
-9 2 -12 -2z"/>
<path d="M3566 6513 c-12 -12 -6 -33 9 -33 8 0 15 6 15 14 0 17 -14 28 -24 19z"/>
<path d="M3676 6485 c-9 -26 -7 -32 5 -12 6 10 9 21 6 23 -2 3 -7 -2 -11 -11z"/>
<path d="M4025 6480 c3 -5 8 -10 11 -10 2 0 4 5 4 10 0 6 -5 10 -11 10 -5 0
-7 -4 -4 -10z"/>
<path d="M4014 6455 c11 -8 16 -21 13 -30 -4 -8 -3 -15 1 -15 13 0 54 42 47
48 -3 4 -10 0 -15 -8 -7 -12 -12 -12 -28 3 -10 9 -23 17 -28 17 -5 0 -1 -7 10
-15z"/>
<path d="M4077 6386 c-4 -10 -1 -13 9 -9 15 6 19 23 5 23 -5 0 -11 -7 -14 -14z"/>
<path d="M3267 6373 c-10 -9 -9 -23 2 -23 5 0 11 7 15 15 5 15 -5 20 -17 8z"/>
<path d="M3654 6355 c-16 -12 -17 -14 -3 -15 9 0 19 7 23 15 7 19 5 19 -20 0z"/>
<path d="M3387 6335 c-8 -27 -7 -115 1 -115 4 0 12 8 19 19 9 14 9 30 -1 67
-10 37 -14 44 -19 29z"/>
<path d="M3900 6330 c0 -5 5 -10 10 -10 6 0 10 5 10 10 0 6 -4 10 -10 10 -5 0
-10 -4 -10 -10z"/>
<path d="M4134 6315 c-17 -13 -17 -14 -2 -15 9 0 20 5 23 11 11 17 0 20 -21 4z"/>
<path d="M4427 6323 c-4 -3 -7 -11 -7 -17 0 -6 5 -5 12 2 6 6 9 14 7 17 -3 3
-9 2 -12 -2z"/>
<path d="M3760 6299 c0 -5 5 -7 10 -4 6 3 10 8 10 11 0 2 -4 4 -10 4 -5 0 -10
-5 -10 -11z"/>
<path d="M3839 6283 c-13 -17 -13 -17 6 -3 11 8 22 16 24 17 2 2 0 3 -6 3 -6
0 -17 -8 -24 -17z"/>
<path d="M3957 6240 c3 -11 7 -20 9 -20 2 0 4 9 4 20 0 11 -4 20 -9 20 -5 0
-7 -9 -4 -20z"/>
<path d="M4375 6220 c3 -5 16 -10 28 -10 18 0 19 2 7 10 -20 13 -43 13 -35 0z"/>
<path d="M3484 5980 c4 -21 17 -44 33 -57 30 -25 44 -23 19 2 -17 18 -20 31
-8 38 4 2 1 2 -5 1 -7 -2 -13 0 -13 4 0 5 -7 17 -16 28 -15 18 -15 17 -10 -16z"/>
<path d="M3581 5850 c0 -14 6 -36 14 -50 18 -31 18 -7 0 40 -12 31 -14 32 -14
10z"/>
<path d="M4370 5771 c0 -5 5 -13 10 -16 6 -3 10 -2 10 4 0 5 -4 13 -10 16 -5
3 -10 2 -10 -4z"/>
<path d="M4550 5685 c0 -18 39 -99 45 -93 10 10 -9 78 -21 78 -8 0 -11 6 -8
15 4 8 1 15 -5 15 -6 0 -11 -7 -11 -15z"/>
<path d="M2750 6645 c0 -11 8 -14 33 -11 17 3 40 5 50 5 9 1 17 6 17 11 0 6
-22 10 -50 10 -38 0 -50 -4 -50 -15z"/>
<path d="M2879 6333 c-13 -17 -13 -17 6 -3 11 8 22 16 24 17 2 2 0 3 -6 3 -6
0 -17 -8 -24 -17z"/>
<path d="M2566 6315 c-16 -12 -17 -15 -4 -15 8 0 21 7 28 15 16 19 1 19 -24 0z"/>
<path d="M2928 6323 c7 -3 16 -2 19 1 4 3 -2 6 -13 5 -11 0 -14 -3 -6 -6z"/>
<path d="M2505 6160 c3 -5 10 -10 16 -10 5 0 9 5 9 10 0 6 -7 10 -16 10 -8 0
-12 -4 -9 -10z"/>
<path d="M2465 6039 c-10 -15 3 -25 16 -12 7 7 7 13 1 17 -6 3 -14 1 -17 -5z"/>
<path d="M1986 6005 c-14 -10 -23 -12 -32 -4 -15 12 -29 -5 -21 -25 5 -13 58
-20 54 -7 0 3 4 16 11 29 15 26 14 26 -12 7z"/>
<path d="M1896 5839 c-9 -46 -8 -49 14 -49 14 0 18 -5 13 -17 -5 -17 -5 -17
12 -1 22 20 23 62 2 82 -23 24 -34 20 -41 -15z"/>
<path d="M6647 6905 c22 -30 71 -55 110 -55 15 0 44 -4 63 -9 19 -5 52 -12 73
-16 l37 -6 0 56 0 55 -150 0 -151 0 18 -25z"/>
<path d="M3968 5812 c-5 -40 0 -65 11 -58 4 3 13 -16 20 -42 11 -39 14 -44 21
-27 12 27 12 37 1 31 -12 -8 -31 48 -31 90 0 46 -17 51 -22 6z"/>
<path d="M4001 5804 c0 -11 3 -14 6 -6 3 7 2 16 -1 19 -3 4 -6 -2 -5 -13z"/>
<path d="M4090 5751 c0 -6 4 -13 10 -16 6 -3 7 1 4 9 -7 18 -14 21 -14 7z"/>
<path d="M4072 5678 c2 -6 10 -14 16 -16 7 -2 10 2 6 12 -7 18 -28 22 -22 4z"/>
<path d="M4125 5680 c3 -5 8 -10 11 -10 2 0 4 5 4 10 0 6 -5 10 -11 10 -5 0
-7 -4 -4 -10z"/>
<path d="M4157 5664 c-3 -4 6 -22 21 -40 19 -24 35 -34 52 -33 17 1 19 3 7 6
-9 2 -14 9 -11 15 5 7 2 8 -5 3 -12 -7 -46 20 -48 38 -2 13 -9 18 -16 11z"/>
<path d="M4050 5645 c0 -8 9 -19 21 -25 20 -11 20 -11 4 14 -20 30 -25 32 -25
11z"/>
<path d="M3950 5618 c1 -20 38 -64 47 -55 9 10 -17 59 -34 65 -7 2 -13 -2 -13
-10z"/>
<path d="M4125 5610 c3 -5 8 -10 11 -10 2 0 4 5 4 10 0 6 -5 10 -11 10 -5 0
-7 -4 -4 -10z"/>
<path d="M4165 5580 c3 -5 8 -10 11 -10 2 0 4 5 4 10 0 6 -5 10 -11 10 -5 0
-7 -4 -4 -10z"/>
<path d="M4190 5566 c0 -2 7 -7 16 -10 8 -3 12 -2 9 4 -6 10 -25 14 -25 6z"/>
<path d="M4290 5550 c0 -5 5 -10 10 -10 6 0 10 5 10 10 0 6 -4 10 -10 10 -5 0
-10 -4 -10 -10z"/>
<path d="M4040 5540 c0 -5 5 -10 10 -10 6 0 10 5 10 10 0 6 -4 10 -10 10 -5 0
-10 -4 -10 -10z"/>
<path d="M4065 5510 c3 -5 10 -10 16 -10 5 0 9 5 9 10 0 6 -7 10 -16 10 -8 0
-12 -4 -9 -10z"/>
<path d="M4760 5272 c0 -5 9 -12 21 -15 13 -3 19 -1 16 6 -5 15 -37 22 -37 9z"/>
<path d="M4700 5215 c0 -3 11 -23 25 -44 25 -40 43 -57 51 -48 6 5 -36 79 -51
89 -12 9 -25 10 -25 3z"/>
<path d="M3985 5200 c3 -5 8 -10 11 -10 2 0 4 5 4 10 0 6 -5 10 -11 10 -5 0
-7 -4 -4 -10z"/>
<path d="M2918 5113 c7 -3 16 -2 19 1 4 3 -2 6 -13 5 -11 0 -14 -3 -6 -6z"/>
<path d="M4880 5084 c0 -16 50 -67 58 -60 3 4 -8 21 -26 39 -18 17 -32 27 -32
21z"/>
<path d="M3040 5069 c0 -10 44 -23 61 -17 6 2 -5 9 -25 15 -20 6 -36 7 -36 2z"/>
<path d="M5053 4884 c-3 -8 -1 -20 6 -27 8 -8 11 -4 11 16 0 30 -7 35 -17 11z"/>
<path d="M5256 4487 c3 -10 9 -15 12 -12 3 3 0 11 -7 18 -10 9 -11 8 -5 -6z"/>
<path d="M5260 4423 c0 -14 41 -76 46 -70 7 6 -22 63 -36 72 -5 3 -10 3 -10
-2z"/>
<path d="M5310 4309 c7 -11 14 -18 17 -15 8 8 -5 36 -17 36 -7 0 -7 -6 0 -21z"/>
<path d="M2420 4020 c0 -5 -10 -10 -22 -11 -22 0 -22 -1 -3 -9 24 -10 15 -12
-51 -10 -46 1 -51 -1 -63 -26 -10 -23 -10 -29 4 -36 21 -12 9 -28 -21 -28 -14
0 -23 -4 -20 -9 3 -4 -7 -6 -22 -3 -26 5 -27 4 -9 -15 10 -11 40 -28 68 -37
59 -18 79 -20 79 -6 0 6 -5 10 -12 10 -6 0 -9 2 -6 5 3 3 24 3 47 -1 23 -4 39
-9 37 -12 -11 -10 16 -42 34 -42 12 0 20 -7 20 -16 0 -13 7 -15 34 -10 61 12
57 -36 -5 -49 -16 -4 -29 -11 -29 -16 0 -12 0 -12 50 6 23 8 49 15 56 15 23 0
16 -27 -8 -34 -23 -6 -22 -6 6 -21 15 -8 40 -15 55 -15 23 -1 24 -2 8 -11 -10
-6 -66 -14 -125 -19 -148 -12 -239 -37 -301 -84 -19 -14 -36 -24 -39 -22 -8 8
14 36 46 60 25 18 30 26 20 33 -9 5 2 10 32 14 25 4 9 4 -35 2 -44 -3 -93 -12
-109 -20 -21 -11 -31 -12 -34 -4 -9 28 -23 7 -21 -33 2 -26 -3 -51 -10 -60 -9
-11 -10 -16 -2 -16 6 0 11 -9 11 -20 0 -11 9 -29 21 -41 15 -15 18 -24 9 -34
-19 -23 -30 -76 -17 -79 7 -2 26 -8 43 -13 17 -6 38 -7 46 -2 10 6 22 1 37
-17 12 -14 26 -22 31 -19 13 8 13 75 0 75 -5 0 -10 7 -10 15 0 13 9 11 43 -10
24 -14 53 -25 64 -25 17 0 14 6 -19 41 -31 33 -37 44 -27 55 6 8 15 14 20 14
4 0 20 11 34 24 14 13 36 24 50 24 21 0 25 -5 26 -32 1 -35 15 -77 44 -124 19
-32 20 -32 97 -32 43 0 80 5 83 10 5 8 11 7 21 -1 12 -10 13 -9 8 5 -4 10 1
25 11 36 9 10 19 37 22 59 6 46 20 51 47 20 15 -19 46 -80 46 -92 0 -3 -18 -5
-40 -5 -57 -1 -74 -16 -25 -22 29 -4 41 -10 43 -24 4 -17 -1 -18 -37 -13 -23
3 -41 2 -41 -2 0 -4 -17 -7 -37 -7 -21 -1 -30 1 -20 3 9 3 17 11 17 19 0 20
-10 17 -32 -8 -15 -18 -21 -20 -28 -9 -7 12 -11 11 -25 -2 -20 -21 -26 -21
-19 -2 5 11 -1 15 -21 15 -14 0 -24 -4 -21 -9 10 -15 -38 2 -50 18 -10 13 -14
13 -28 2 -9 -7 -16 -21 -16 -30 0 -27 94 -58 117 -39 9 7 13 7 13 -1 0 -8 9
-7 30 4 37 19 50 19 50 0 0 -8 -7 -15 -15 -15 -9 0 -18 -7 -21 -15 -7 -17 -44
-21 -44 -4 0 5 -4 7 -10 4 -14 -8 -12 -47 3 -66 7 -9 28 -20 47 -24 19 -4 43
-14 52 -22 14 -13 21 -13 32 -4 8 7 19 10 25 7 5 -4 12 2 14 11 4 17 5 17 6 1
1 -19 21 -26 21 -8 0 6 7 10 15 10 8 0 15 -6 15 -14 0 -7 7 -19 15 -26 12 -10
15 -7 21 14 7 27 20 34 26 14 3 -8 11 -7 28 5 14 9 31 17 38 17 8 0 38 25 67
55 28 30 57 55 62 55 9 0 20 35 23 68 0 4 -18 10 -40 13 -28 4 -39 2 -36 -6 2
-6 -3 -16 -12 -22 -15 -9 -17 -4 -20 34 -1 23 2 43 8 43 5 0 6 -8 3 -17 -6
-15 -4 -16 8 -6 18 15 99 15 117 0 18 -14 35 12 20 30 -7 9 -7 17 0 26 7 8 7
18 2 27 -6 8 -10 24 -10 36 0 11 -9 29 -20 39 -11 10 -20 26 -20 35 0 9 -9 25
-20 35 -15 14 -17 21 -8 26 9 6 9 11 -1 23 -10 12 -8 17 11 30 34 22 34 65 -2
133 -16 32 -30 54 -30 48 0 -5 -7 -1 -15 9 -13 17 -15 17 -21 3 -3 -9 -11 -14
-16 -11 -6 4 -8 -1 -4 -13 4 -12 1 -25 -9 -33 -13 -11 -15 -8 -15 15 0 28 -48
115 -63 115 -4 0 -21 13 -37 30 -17 17 -35 27 -44 24 -7 -3 -17 0 -21 5 -16
26 -96 49 -200 56 -27 2 -66 8 -85 14 -43 14 -60 14 -60 1z m107 -206 c-3 -3
-12 -4 -19 -1 -8 3 -5 6 6 6 11 1 17 -2 13 -5z m-17 -234 c-20 -13 -73 -13
-65 0 3 6 23 10 43 10 28 0 33 -3 22 -10z m55 0 c3 -5 -1 -10 -9 -10 -9 0 -16
5 -16 10 0 6 4 10 9 10 6 0 13 -4 16 -10z m-145 -10 c0 -14 -129 -72 -141 -64
-20 12 83 73 124 74 9 0 17 -5 17 -10z m430 -312 c0 -6 -7 -7 -16 -4 -9 3 -20
6 -25 6 -5 0 -9 4 -9 9 0 4 11 6 25 3 14 -2 25 -9 25 -14z m36 -4 c-3 -9 -6
-21 -6 -26 0 -19 -14 1 -15 22 -1 11 5 20 13 20 9 0 12 -6 8 -16z m19 -13 c3
-5 1 -12 -5 -16 -5 -3 -10 1 -10 9 0 18 6 21 15 7z m-215 -21 c0 -5 -7 -10
-15 -10 -8 0 -15 5 -15 10 0 6 7 10 15 10 8 0 15 -4 15 -10z"/>
<path d="M5392 3970 c0 -14 2 -19 5 -12 2 6 2 18 0 25 -3 6 -5 1 -5 -13z"/>
<path d="M2217 3963 c-13 -12 -7 -23 13 -23 11 0 20 7 20 15 0 15 -21 21 -33
8z"/>
<path d="M2104 3925 c-4 -8 -12 -15 -20 -15 -8 0 -14 -7 -14 -16 0 -10 6 -13
19 -9 13 4 25 -2 37 -19 16 -20 23 -23 44 -14 25 9 25 10 5 24 -20 15 -20 15
-1 26 17 10 16 12 -14 24 -41 18 -49 17 -56 -1z"/>
<path d="M4224 3929 c-3 -5 -27 -9 -54 -9 -40 0 -131 -22 -198 -47 -10 -4 -13
-2 -8 5 12 21 -19 13 -58 -13 -21 -14 -41 -23 -46 -20 -9 5 -75 -30 -99 -53
-7 -7 -20 -11 -27 -8 -16 6 -23 -4 -26 -38 -2 -17 -7 -25 -15 -22 -9 4 -13 -4
-13 -21 0 -14 -10 -34 -21 -44 -17 -15 -20 -25 -14 -51 9 -43 9 -96 0 -130 -6
-23 -1 -37 31 -78 21 -27 44 -50 50 -50 7 0 14 -5 16 -11 3 -9 10 -9 27 0 22
12 22 11 19 -38 -3 -55 -8 -59 -51 -36 -31 16 -61 10 -53 -12 3 -8 1 -11 -4
-8 -18 11 -10 -15 10 -32 11 -10 20 -22 20 -28 0 -22 84 -85 114 -85 8 0 16
-6 19 -14 7 -16 124 -56 166 -56 16 0 42 -5 57 -10 23 -9 29 -8 37 6 7 12 18
15 51 10 37 -6 45 -3 66 20 14 14 34 30 45 34 17 7 17 9 3 9 -12 1 -18 9 -19
24 0 12 -3 16 -6 10 -7 -18 -30 -16 -41 3 -6 11 -17 15 -31 11 -11 -3 -24 0
-29 6 -9 15 -36 32 -81 52 -55 25 -27 37 55 25 86 -12 114 -12 114 -1 0 9 -67
26 -84 22 -5 -1 -12 3 -16 10 -5 7 -13 8 -21 3 -24 -15 -41 -13 -35 3 3 8 6
18 6 22 0 4 21 4 48 0 26 -4 82 -8 125 -8 l78 -1 20 45 c11 25 23 45 26 45 4
0 18 -11 32 -24 31 -29 110 -57 139 -49 17 4 19 9 11 26 -14 31 -59 63 -68 49
-4 -7 -14 -2 -25 13 -10 14 -23 25 -28 25 -5 0 -22 9 -38 20 -17 11 -44 30
-62 41 -17 12 -45 22 -62 21 -17 0 -38 6 -47 14 -11 10 -19 12 -24 5 -3 -6
-16 -11 -27 -11 l-21 0 21 19 c12 10 19 21 15 25 -3 3 16 6 43 6 43 0 101 -11
169 -34 11 -3 0 3 -24 15 -58 28 -201 52 -271 46 -30 -2 -65 1 -78 6 -17 8
-25 8 -31 -1 -4 -8 -13 -1 -25 18 -18 32 -13 55 10 46 9 -3 14 1 14 14 0 13
12 22 38 31 20 6 46 18 57 25 11 8 27 14 37 14 10 0 18 4 18 9 0 5 10 7 21 4
14 -4 27 0 35 12 7 9 34 21 60 26 53 10 64 17 46 28 -8 5 6 17 40 34 35 18 45
27 31 27 -12 0 -25 5 -28 10 -3 6 -15 10 -25 10 -13 0 -17 5 -14 15 4 8 2 15
-2 15 -5 0 -26 4 -47 9 -21 5 -39 5 -43 0z m-306 -336 c-11 -10 -23 -13 -35
-8 -16 6 -14 9 12 20 36 16 45 11 23 -12z m8 -38 c-16 -17 -36 -20 -36 -6 0 8
17 16 43 20 5 0 2 -6 -7 -14z m194 -45 c0 -5 -7 -10 -16 -10 -8 0 -12 5 -9 10
3 6 10 10 16 10 5 0 9 -4 9 -10z m-48 -145 c2 -25 -2 -56 -9 -68 l-11 -22 -11
28 c-7 19 -18 27 -34 27 -13 0 -29 6 -35 12 -10 10 -6 18 20 40 18 15 43 28
54 28 19 0 23 -7 26 -45z m-205 -109 c-2 -6 -13 -12 -25 -14 -24 -4 -25 -2
-16 21 6 17 47 11 41 -7z"/>
<path d="M2095 3860 c-6 -10 15 -50 28 -50 4 0 5 6 0 13 -4 6 -6 20 -5 30 3
18 -13 24 -23 7z"/>
<path d="M2196 3822 c-3 -5 6 -14 19 -20 14 -7 25 -16 25 -22 0 -13 37 -13 45
0 3 6 17 10 30 10 49 0 33 18 -23 24 -31 4 -64 9 -74 12 -9 3 -19 1 -22 -4z"/>
<path d="M2130 3779 c0 -6 8 -8 19 -4 10 3 24 -1 31 -10 7 -8 18 -15 24 -15 6
1 0 10 -13 20 -25 21 -61 27 -61 9z"/>
<path d="M2045 3759 c4 -6 13 -8 21 -5 8 3 11 0 8 -8 -7 -17 22 -40 42 -32 13
5 10 11 -14 31 -30 25 -69 35 -57 14z"/>
<path d="M2227 3714 c-8 -8 1 -24 14 -24 5 0 9 7 9 15 0 15 -12 20 -23 9z"/>
<path d="M2080 3660 c0 -5 5 -10 11 -10 5 0 7 5 4 10 -3 6 -8 10 -11 10 -2 0
-4 -4 -4 -10z"/>
<path d="M2217 3649 c7 -7 15 -10 18 -7 3 3 -2 9 -12 12 -14 6 -15 5 -6 -5z"/>
<path d="M2370 3650 c20 -13 40 -13 40 0 0 6 -12 10 -27 10 -22 0 -25 -2 -13
-10z"/>
<path d="M2458 3653 c7 -3 16 -2 19 1 4 3 -2 6 -13 5 -11 0 -14 -3 -6 -6z"/>
<path d="M4430 3506 c0 -2 15 -9 33 -15 29 -10 30 -9 13 4 -18 14 -46 20 -46
11z"/>
<path d="M4505 3460 c3 -5 11 -10 16 -10 6 0 7 5 4 10 -3 6 -11 10 -16 10 -6
0 -7 -4 -4 -10z"/>
<path d="M4555 3416 c18 -27 65 -62 65 -48 0 10 -63 72 -73 72 -4 0 0 -11 8
-24z"/>
<path d="M5581 3347 c-43 -33 -48 -45 -30 -78 5 -11 17 -99 25 -197 18 -217
25 -252 35 -162 16 158 30 232 54 291 14 35 28 80 31 101 6 35 4 37 -34 57
l-39 20 -42 -32z"/>
<path d="M2112 3279 c2 -6 8 -10 13 -10 5 0 11 4 13 10 2 6 -4 11 -13 11 -9 0
-15 -5 -13 -11z"/>
<path d="M3093 3222 c-29 -29 -29 -52 -1 -52 12 0 18 3 15 7 -4 3 -1 11 7 17
7 6 10 20 7 31 -6 20 -7 19 -28 -3z"/>
<path d="M3043 3140 c1 -23 8 -36 19 -38 20 -4 18 17 -5 49 l-17 24 3 -35z"/>
<path d="M3037 3074 c3 -8 -6 -23 -21 -35 -24 -19 -37 -69 -18 -69 11 0 72 81
72 96 0 6 -9 14 -19 17 -14 3 -18 1 -14 -9z"/>
<path d="M2596 3012 c-9 -15 24 -52 47 -52 13 0 17 3 11 8 -6 4 -16 17 -23 30
-12 23 -26 28 -35 14z"/>
<path d="M1740 2990 c-36 -66 -54 -256 -28 -287 9 -11 17 -9 40 13 27 26 28
32 28 113 0 47 -6 109 -13 136 -13 49 -14 50 -27 25z"/>
<path d="M5336 2991 c-9 -10 -21 -33 -26 -51 -8 -28 -6 -37 15 -62 14 -16 25
-41 25 -54 0 -14 4 -23 8 -20 12 7 52 -22 52 -38 0 -22 32 -116 40 -116 15 0
43 83 43 124 0 36 -6 52 -36 87 -20 23 -37 46 -37 51 0 5 -5 14 -10 21 -6 7
-21 27 -34 44 -22 32 -24 32 -40 14z"/>
<path d="M3105 2896 c-10 -7 -14 -15 -9 -19 5 -3 17 1 27 8 10 7 14 16 9 19
-5 3 -17 -1 -27 -8z"/>
<path d="M2973 2643 c-7 -2 -13 -16 -13 -30 0 -14 -13 -37 -30 -55 -37 -36
-37 -46 -5 -54 33 -8 35 -5 42 46 4 25 13 46 26 55 30 21 14 52 -20 38z"/>
<path d="M5440 2599 c0 -5 5 -7 10 -4 6 3 10 8 10 11 0 2 -4 4 -10 4 -5 0 -10
-5 -10 -11z"/>
<path d="M2841 2475 c3 -43 -2 -56 -26 -65 -36 -14 -95 -62 -95 -78 0 -12 -27
-55 -59 -95 -15 -19 -18 -26 -28 -91 -5 -30 -2 -42 11 -52 14 -10 15 -16 6
-33 -6 -12 -7 -21 -3 -21 4 -1 -7 -7 -24 -15 -24 -10 -33 -20 -33 -38 0 -14
-6 -30 -14 -36 -11 -9 -11 -17 -2 -36 6 -14 17 -25 24 -25 20 0 129 113 114
118 -14 4 -16 32 -2 32 6 0 10 12 10 28 0 16 8 32 20 40 11 7 20 19 20 26 0 8
9 18 20 21 11 3 20 13 20 21 0 8 6 14 13 14 18 0 67 59 67 81 0 14 7 19 30 19
19 0 30 -5 30 -14 0 -8 10 -16 22 -18 16 -2 24 -12 28 -31 4 -24 13 -32 55
-45 46 -16 51 -20 59 -57 12 -52 12 -51 36 -30 19 17 22 17 36 3 19 -18 11
-38 -14 -39 -12 0 -11 -3 6 -9 12 -5 27 -20 32 -32 7 -18 9 -19 9 -5 1 19 36
24 46 6 4 -6 13 -8 21 -5 8 3 11 0 7 -10 -3 -7 -1 -14 4 -14 5 0 25 -14 43
-30 48 -43 66 -36 62 23 -3 41 -1 48 14 45 9 -2 19 3 21 10 3 6 -3 12 -12 12
-13 0 -14 4 -5 21 7 11 18 18 25 15 10 -3 12 5 10 32 -1 20 -8 38 -14 40 -7 2
-9 18 -4 44 6 40 6 41 -20 34 -33 -8 -34 4 -4 31 27 24 58 37 54 21 -1 -6 21
-16 48 -23 28 -7 63 -17 79 -24 24 -10 35 -8 72 11 47 23 50 28 32 61 -31 58
-76 68 -154 32 -52 -24 -86 -27 -83 -8 3 19 -2 33 -11 33 -6 0 -29 12 -52 27
-24 14 -59 27 -80 29 -21 1 -42 5 -48 9 -6 4 -17 2 -25 -5 -10 -8 -16 -7 -23
6 -6 11 -11 13 -16 5 -9 -14 -46 -15 -46 -1 0 6 -7 10 -16 10 -9 0 -12 5 -8
13 4 6 -2 4 -13 -5 -25 -23 -29 -22 -36 2 -6 23 -37 27 -37 5 0 -8 -5 -15 -11
-15 -5 0 -7 -5 -4 -10 4 -6 10 -8 14 -5 5 2 6 -6 3 -20 -2 -15 -12 -25 -26
-27 -11 -2 -20 -8 -19 -14 2 -11 -38 -11 -55 0 -15 9 -21 60 -9 74 15 19 -11
34 -47 26 -19 -4 -32 -1 -38 7 -7 11 -9 9 -7 -6z m422 -100 c-3 -8 0 -15 6
-15 6 0 11 -4 11 -10 0 -5 -9 -10 -21 -10 -15 0 -19 4 -15 16 3 9 6 22 6 30 0
9 4 13 10 9 5 -3 7 -12 3 -20z"/>
<path d="M3820 2421 c0 -6 5 -11 10 -11 6 0 10 -9 10 -21 0 -19 -1 -19 -16 -5
-19 20 -30 20 -37 3 -7 -19 7 -39 24 -35 8 2 15 -7 18 -22 3 -23 4 -23 11 -5
7 19 8 19 15 1 5 -11 3 -21 -6 -27 -12 -7 -12 -9 0 -9 11 0 11 -3 0 -16 -11
-13 -10 -17 4 -26 9 -5 24 -24 31 -43 8 -19 24 -44 35 -57 12 -12 30 -47 42
-77 33 -90 43 -110 52 -104 5 3 24 -10 43 -28 l34 -33 7 35 c7 33 7 33 15 9 5
-17 6 -12 2 15 -3 22 -12 47 -20 56 -8 8 -14 22 -14 29 0 7 -11 28 -25 46 -14
18 -25 39 -25 47 0 33 -34 91 -80 138 -27 27 -51 58 -55 68 -3 10 -14 21 -24
24 -11 2 -21 15 -23 28 -3 22 -28 40 -28 20z"/>
<path d="M1881 2314 c0 -11 3 -14 6 -6 3 7 2 16 -1 19 -3 4 -6 -2 -5 -13z"/>
<path d="M4385 2150 c4 -6 11 -8 16 -5 14 9 11 15 -7 15 -8 0 -12 -5 -9 -10z"/>
<path d="M3082 2021 c-11 -7 -10 -10 3 -15 26 -10 35 -7 35 9 0 17 -18 19 -38
6z"/>
<path d="M2745 2000 c4 -6 11 -8 16 -5 14 9 11 15 -7 15 -8 0 -12 -5 -9 -10z"/>
<path d="M3278 1963 c7 -3 16 -2 19 1 4 3 -2 6 -13 5 -11 0 -14 -3 -6 -6z"/>
<path d="M2557 1884 c-4 -4 -7 -14 -7 -23 0 -11 3 -12 11 -4 6 6 10 16 7 23
-2 6 -7 8 -11 4z"/>
<path d="M2620 1851 c0 -5 6 -14 14 -20 11 -9 16 -9 21 0 4 6 1 15 -6 20 -18
11 -29 11 -29 0z"/>
<path d="M3155 1824 c-11 -3 -64 -16 -118 -30 -55 -14 -120 -23 -150 -22 -28
1 -60 -1 -69 -6 -13 -6 -18 -4 -18 8 0 12 -7 14 -32 10 -18 -4 -38 -13 -44
-20 -6 -8 -25 -14 -42 -14 -23 0 -36 -7 -48 -25 -9 -14 -25 -25 -35 -25 -40 0
-27 -140 14 -148 24 -5 107 35 107 51 0 20 75 27 107 10 14 -7 34 -13 44 -13
10 0 21 -5 24 -10 4 -6 23 -17 43 -25 59 -25 102 -63 102 -90 0 -21 6 -26 40
-31 22 -4 40 -10 40 -15 0 -5 12 -9 27 -9 l27 0 -22 -16 c-12 -8 -22 -22 -22
-30 0 -8 -3 -13 -7 -13 -20 3 -26 -2 -13 -11 13 -9 13 -11 0 -20 -13 -9 -13
-11 0 -20 19 -13 27 -12 35 1 5 7 13 4 26 -7 11 -10 37 -17 64 -18 70 -2 47
-20 -38 -30 -42 -5 -77 -12 -77 -16 0 -9 151 -13 172 -5 10 4 13 15 10 30 -3
19 1 27 21 34 33 13 42 28 27 46 -10 12 -9 16 3 21 9 3 19 14 22 25 4 10 15
19 26 19 10 0 19 4 19 8 0 5 11 14 25 20 16 8 25 19 23 29 -2 12 4 19 19 21
12 2 25 12 28 23 4 10 13 19 20 19 19 0 29 20 17 32 -8 8 -15 8 -24 0 -7 -6
-40 -12 -74 -14 -33 -3 -65 -8 -71 -11 -6 -4 -13 2 -16 13 -4 16 -14 20 -46
20 -23 0 -41 -4 -41 -10 0 -5 -7 -10 -15 -10 -8 0 -15 5 -15 10 0 6 -4 10 -10
10 -5 0 -10 -7 -10 -16 0 -12 -6 -15 -22 -10 -13 3 -49 6 -80 6 -42 0 -63 5
-76 18 -9 9 -29 22 -44 29 -19 9 -25 17 -21 31 6 26 89 34 281 27 113 -4 148
-2 171 9 15 8 37 15 47 15 10 -1 79 7 151 16 128 17 185 15 154 -4 -10 -6 -4
-11 20 -16 19 -4 39 -11 44 -15 6 -4 22 -8 37 -8 15 0 43 -13 65 -31 43 -35
73 -40 80 -12 3 11 11 22 19 25 8 3 14 18 14 33 0 22 -2 25 -10 13 -8 -13 -11
-11 -16 8 -4 12 -13 22 -20 22 -8 0 -14 5 -14 10 0 6 -6 10 -14 10 -7 0 -19 6
-25 14 -20 23 -77 29 -106 10 -29 -19 -88 -11 -253 33 -81 21 -122 26 -242 28
-80 1 -156 4 -170 8 -14 3 -34 3 -45 1z m85 -509 c0 -8 -7 -15 -15 -15 -8 0
-15 7 -15 15 0 8 7 15 15 15 8 0 15 -7 15 -15z"/>
<path d="M3000 1480 c0 -5 5 -10 11 -10 5 0 7 5 4 10 -3 6 -8 10 -11 10 -2 0
-4 -4 -4 -10z"/>
<path d="M3387 1370 c8 -29 25 -37 21 -9 -1 12 -8 24 -15 26 -7 3 -9 -3 -6
-17z"/>
<path d="M2151 1304 c0 -11 3 -14 6 -6 3 7 2 16 -1 19 -3 4 -6 -2 -5 -13z"/>
<path d="M4859 1288 c-3 -59 3 -166 18 -303 22 -208 15 -293 -36 -444 -35
-102 -92 -233 -111 -251 -3 -3 -14 -23 -25 -45 -11 -22 -33 -53 -48 -69 -28
-29 -52 -73 -48 -89 1 -5 -14 -23 -34 -41 -19 -18 -35 -35 -35 -39 0 -4 85 -7
190 -7 l190 0 6 28 c3 15 10 38 16 52 6 14 14 43 18 65 4 22 18 76 30 120 13
44 25 100 29 125 3 25 12 46 19 46 23 3 24 4 12 19 -8 10 -9 19 -3 28 14 17
15 294 2 375 -6 37 -11 81 -11 97 0 74 -93 296 -142 337 -28 23 -36 22 -37 -4z"/>
<path d="M2124 1192 c-11 -9 -39 -40 -62 -68 -27 -34 -52 -53 -71 -57 -17 -4
-38 -19 -52 -39 -13 -18 -27 -35 -31 -36 -5 -2 -27 -22 -51 -44 -23 -22 -58
-51 -77 -64 -19 -14 -51 -35 -70 -49 -19 -13 -47 -33 -62 -45 -15 -11 -30 -21
-33 -20 -3 0 -17 -11 -31 -25 -14 -14 -35 -25 -47 -25 -22 -1 -57 -21 -57 -34
0 -11 -63 -66 -76 -66 -8 0 -14 -5 -14 -11 0 -12 -140 -159 -152 -159 -11 0
-54 -43 -61 -62 -3 -9 -1 -18 5 -20 14 -5 3 -38 -12 -38 -5 0 -10 11 -10 25 0
18 -5 25 -19 25 -22 0 -51 -40 -51 -70 0 -11 -6 -20 -13 -20 -17 0 -42 -44
-33 -58 11 -18 -6 -42 -29 -42 -31 0 -35 -8 -46 -88 -6 -40 -15 -70 -24 -75
-8 -4 -15 -12 -15 -17 0 -6 163 -10 425 -10 l425 0 0 35 c0 19 4 35 9 35 6 0
7 -16 4 -35 l-6 -35 409 0 409 1 -25 21 c-14 11 -24 27 -22 35 2 9 -6 25 -17
37 -12 13 -21 38 -23 65 -3 47 -26 68 -35 32 -6 -25 -28 -28 -37 -5 -4 11 1
18 14 21 11 3 20 9 20 14 0 13 -43 39 -66 39 -12 0 -25 8 -28 17 -5 12 -9 14
-18 5 -16 -16 -31 -15 -25 2 3 8 -6 27 -20 43 -35 40 -63 85 -63 104 0 9 -9
24 -20 34 -11 10 -20 27 -20 37 0 10 -7 35 -16 56 -9 20 -21 78 -26 127 -12
117 -12 115 -4 220 4 50 8 137 9 195 2 98 1 105 -18 107 -11 2 -29 -5 -41 -15z
m-307 -974 c-3 -8 -6 -5 -6 6 -1 11 2 17 5 13 3 -3 4 -12 1 -19z m-2 -80 c-7
-28 -9 -30 -15 -13 -4 11 -3 28 2 38 14 27 21 13 13 -25z"/>
<path d="M4990 1201 c0 -6 5 -13 10 -16 6 -3 10 1 10 9 0 9 -4 16 -10 16 -5 0
-10 -4 -10 -9z"/>
<path d="M2240 1137 c0 -8 3 -17 8 -19 10 -4 72 -85 72 -94 0 -10 40 -43 61
-49 11 -4 19 -13 19 -22 0 -9 25 -40 55 -70 30 -30 55 -58 55 -63 0 -5 11 -12
25 -16 28 -7 33 -22 10 -30 -20 -8 -19 -17 5 -45 l20 -24 -6 38 c-4 24 -2 37
5 37 6 0 11 -6 11 -14 0 -7 9 -16 20 -19 14 -3 20 -14 20 -31 0 -21 5 -26 25
-26 22 0 25 -4 23 -27 -3 -25 1 -28 27 -31 59 -5 73 -12 79 -37 4 -14 11 -25
16 -25 6 0 10 -7 10 -15 0 -8 8 -24 17 -35 14 -16 25 -18 55 -14 34 6 39 4 48
-20 5 -14 15 -26 22 -26 7 0 26 -7 41 -15 15 -8 43 -17 62 -21 22 -4 40 -16
51 -33 9 -14 27 -36 41 -47 21 -18 29 -20 54 -11 16 6 29 17 29 24 0 7 4 13 8
13 5 0 9 -17 10 -37 1 -20 7 -40 14 -44 8 -5 9 -11 1 -21 -5 -7 -13 -23 -16
-35 -4 -18 -1 -23 14 -23 16 0 18 5 13 25 -4 15 -2 25 5 25 6 0 11 5 11 11 0
6 6 17 14 25 12 11 18 12 40 1 24 -13 24 -15 8 -31 -16 -16 -16 -18 2 -32 30
-22 70 -17 96 11 13 14 29 25 36 25 7 0 20 10 28 22 16 22 16 22 16 1 0 -13 8
-23 22 -26 17 -5 33 5 70 43 26 27 56 51 67 55 10 3 21 14 24 24 3 12 24 24
63 36 33 9 65 19 72 21 8 2 11 11 7 24 -6 20 -4 22 40 24 11 1 22 11 26 26 7
24 7 24 8 3 1 -13 4 -23 7 -23 12 0 94 84 94 96 0 7 9 16 21 19 11 4 24 18 29
31 5 13 16 24 25 24 8 0 15 4 15 10 0 5 16 12 36 16 19 4 38 12 41 19 2 7 16
16 30 20 16 4 23 11 19 20 -4 11 2 15 19 15 14 0 25 5 25 10 0 6 7 10 15 10 8
0 15 6 15 13 0 20 -59 8 -71 -14 -5 -11 -19 -19 -29 -19 -11 0 -20 -4 -20 -10
0 -5 -13 -10 -29 -10 -17 0 -46 -9 -65 -21 -19 -11 -43 -19 -53 -18 -10 1 -31
-3 -46 -9 -16 -7 -37 -12 -48 -12 -10 0 -19 -4 -19 -9 0 -14 -31 -22 -45 -11
-7 6 -23 6 -45 0 -18 -5 -37 -7 -42 -4 -16 10 -58 -6 -58 -21 0 -17 -25 -20
-35 -5 -3 5 -33 8 -65 6 -33 -2 -60 0 -60 4 0 4 -9 10 -20 13 -11 3 -19 11
-18 17 2 7 -3 15 -9 17 -7 3 -13 0 -13 -6 0 -6 -9 -11 -20 -11 -11 0 -20 -4
-20 -10 0 -5 -9 -10 -20 -10 -18 0 -19 3 -8 20 7 10 9 23 5 27 -5 4 -12 1 -17
-7 -8 -12 -10 -12 -10 -1 0 11 -3 11 -16 0 -13 -10 -17 -10 -25 2 -8 12 -10
12 -19 -1 -8 -13 -13 -13 -39 3 -16 9 -36 17 -44 17 -8 0 -19 6 -25 13 -12 14
-114 16 -170 3 -27 -6 -38 -4 -56 13 l-22 21 -21 -22 c-11 -13 -20 -33 -18
-45 2 -31 -24 -38 -35 -9 -5 14 -18 27 -30 31 -26 8 -40 -3 -20 -15 8 -5 11
-13 6 -17 -9 -9 -36 24 -36 43 0 10 -13 12 -47 7 l-48 -5 0 38 c0 23 -5 39
-12 39 -6 0 -15 3 -19 7 -4 4 -13 3 -20 -3 -8 -6 -26 -8 -44 -4 -32 7 -41 25
-12 26 13 0 14 2 2 6 -8 3 -18 11 -22 17 -5 6 -8 1 -8 -11 0 -28 -26 -31 -35
-4 -3 10 -20 33 -36 51 -24 24 -33 29 -39 19 -7 -10 -12 -10 -23 -1 -7 7 -17
8 -21 4 -4 -4 -4 7 0 23 4 17 13 34 21 38 24 15 14 25 -27 25 -30 1 -40 -3
-40 -15 0 -13 -3 -13 -15 -3 -9 7 -14 15 -11 17 9 9 -51 62 -76 68 -18 5 -28
14 -28 26 0 10 -5 19 -12 19 -6 0 -20 7 -30 17 -16 14 -18 14 -18 0z m783
-432 c-6 -17 -25 -15 -31 3 -2 7 5 12 17 12 14 0 19 -5 14 -15z m518 -58 c14
4 19 0 19 -16 0 -24 -25 -29 -34 -6 -3 8 -12 15 -21 15 -18 0 -20 17 -2 23 6
2 13 -2 15 -8 2 -7 12 -11 23 -8z"/>
<path d="M5080 1039 c0 -31 15 -53 29 -45 17 11 13 31 -9 51 -19 18 -20 17
-20 -6z"/>
<path d="M5100 965 c0 -9 7 -32 16 -53 50 -120 59 -157 59 -262 0 -128 -44
-390 -79 -470 -13 -30 -28 -75 -34 -100 -6 -25 -14 -53 -17 -63 -7 -15 1 -17
84 -17 l91 0 0 50 c0 46 13 67 23 38 2 -7 2 32 0 86 -3 98 -3 101 26 136 19
24 26 41 21 50 -5 7 -4 25 2 39 19 47 17 99 -3 117 -11 10 -19 24 -19 33 0 9
-7 25 -15 35 -10 13 -15 43 -15 87 0 49 -4 70 -16 80 -12 9 -15 24 -11 52 3
23 0 49 -9 65 -8 15 -14 35 -14 44 0 10 -17 29 -37 43 -44 29 -53 31 -53 10z"/>
<path d="M4406 891 c-4 -7 -5 -15 -2 -18 9 -9 19 4 14 18 -4 11 -6 11 -12 0z"/>
<path d="M3360 795 c0 -8 5 -15 10 -15 6 0 10 7 10 15 0 8 -4 15 -10 15 -5 0
-10 -7 -10 -15z"/>
<path d="M3361 754 c0 -11 3 -14 6 -6 3 7 2 16 -1 19 -3 4 -6 -2 -5 -13z"/>
<path d="M2580 689 c0 -5 5 -7 10 -4 6 3 10 8 10 11 0 2 -4 4 -10 4 -5 0 -10
-5 -10 -11z"/>
<path d="M4220 690 c-9 -6 -10 -10 -3 -10 6 0 15 5 18 10 8 12 4 12 -15 0z"/>
<path d="M2475 580 c-8 -13 3 -50 16 -50 12 0 12 47 0 55 -5 3 -12 1 -16 -5z"/>
<path d="M2580 490 c0 -5 5 -10 10 -10 6 0 10 5 10 10 0 6 -4 10 -10 10 -5 0
-10 -4 -10 -10z"/>
<path d="M2490 330 c0 -11 7 -20 15 -20 8 0 15 9 15 20 0 11 -7 20 -15 20 -8
0 -15 -9 -15 -20z"/>
<path d="M3054 334 c3 -9 6 -18 6 -20 0 -2 14 -4 30 -4 34 0 38 7 13 26 -26
19 -57 18 -49 -2z"/>
<path d="M3130 290 c8 -5 24 -9 35 -9 l20 0 -20 9 c-11 5 -27 9 -35 9 -13 1
-13 0 0 -9z"/>
<path d="M3200 275 c0 -9 6 -12 15 -9 8 4 15 10 15 15 0 5 -7 9 -15 9 -8 0
-15 -7 -15 -15z"/>
<path d="M2720 222 c0 -16 8 -32 20 -39 11 -7 23 -27 28 -45 6 -23 14 -33 28
-33 15 0 19 7 19 35 0 24 -4 34 -13 32 -8 -1 -16 7 -19 18 -3 11 -10 20 -15
20 -5 0 -6 9 -3 20 5 16 2 20 -19 20 -22 0 -26 -5 -26 -28z"/>
<path d="M2834 214 c3 -9 6 -20 6 -25 0 -15 20 -10 27 7 3 9 0 20 -8 25 -21
13 -32 11 -25 -7z"/>
<path d="M2990 193 c0 -10 4 -24 9 -31 6 -11 9 -10 13 5 3 10 3 24 1 31 -7 18
-23 15 -23 -5z"/>
<path d="M3443 191 c-20 -17 -21 -20 -6 -25 9 -4 21 -2 27 4 14 14 26 12 26
-5 0 -8 5 -15 11 -15 7 0 9 9 5 23 -3 12 -6 25 -6 30 0 14 -35 6 -57 -12z"/>
<path d="M2595 179 c-4 -6 -13 -8 -21 -5 -19 7 -27 -10 -19 -44 12 -53 64 -27
65 33 0 27 -13 36 -25 16z"/>
<path d="M3200 180 c0 -5 5 -10 10 -10 6 0 10 5 10 10 0 6 -4 10 -10 10 -5 0
-10 -4 -10 -10z"/>
<path d="M3355 181 c-9 -16 30 -32 43 -19 7 7 12 16 12 20 0 11 -48 10 -55 -1z"/>
<path d="M2920 154 c0 -8 7 -22 15 -31 19 -19 11 -33 -20 -33 -19 0 -26 7 -31
28 -7 29 -23 44 -36 36 -4 -3 -8 -27 -8 -55 0 -45 2 -49 24 -49 13 0 27 6 29
13 4 8 8 9 14 2 4 -6 21 -12 37 -13 16 -1 35 -7 42 -13 19 -15 18 -1 -1 17
-11 12 -12 20 -4 35 8 16 5 25 -18 49 -31 34 -43 37 -43 14z"/>
<path d="M3120 140 c0 -5 5 -10 11 -10 5 0 7 5 4 10 -3 6 -8 10 -11 10 -2 0
-4 -4 -4 -10z"/>
<path d="M3200 130 c0 -14 26 -23 41 -15 8 6 7 10 -2 16 -19 12 -39 11 -39 -1z"/>
<path d="M3265 110 c3 -5 8 -10 11 -10 2 0 4 5 4 10 0 6 -5 10 -11 10 -5 0 -7
-4 -4 -10z"/>
<path d="M3330 100 c0 -5 7 -10 16 -10 8 0 12 5 9 10 -3 6 -10 10 -16 10 -5 0
-9 -4 -9 -10z"/>
<path d="M3267 73 c-12 -11 -8 -23 8 -23 8 0 15 7 15 15 0 16 -12 20 -23 8z"/>
<path d="M2674 55 c-8 -21 3 -45 20 -45 18 0 40 36 31 50 -9 15 -45 12 -51 -5z"/>
<path d="M2620 40 c0 -5 7 -10 15 -10 8 0 15 5 15 10 0 6 -7 10 -15 10 -8 0
-15 -4 -15 -10z"/>
<path d="M2921 32 c-16 -29 -14 -32 14 -32 28 0 31 8 11 35 -13 18 -14 18 -25
-3z"/>
<path d="M2827 33 c-13 -12 15 -33 44 -33 31 0 36 9 17 28 -13 13 -50 16 -61
5z"/>
</g>
</svg>
